<?xml version="1.0" encoding="UTF-8"?>
<svg id="Layer_1" xmlns="http://www.w3.org/2000/svg" version="1.1" viewBox="133 230 526 114">
  <!-- Generator: Adobe Illustrator 30.2.1, SVG Export Plug-In . SVG Version: 2.1.1 Build 1)  -->
  <defs>
    <style>
      .st0 {
        fill: #c12033;
      }
    </style>
  </defs>
  <g>
    <path class="st0" d="M259.81,280.83v-30.79c0-1.31,1.06-2.37,2.37-2.37h45.11v-12.62h-47.99c-6.67,0-12.07,5.41-12.07,12.07v35.92c0,6.67,5.41,12.07,12.07,12.07h47.99v-11.91h-45.11c-1.31,0-2.37-1.06-2.37-2.37Z"/>
    <path d="M325.13,235.05v60.06h12.76v-19.69h35.66c6.43,0,11.64-5.21,11.64-11.64v-17.08c0-6.43-5.21-11.64-11.64-11.64h-48.42ZM372.43,262.37h-34.54v-14.43h34.54v14.43Z"/>
    <polygon points="455.39 235.05 454.74 235.05 433.91 259.87 413.09 235.05 412.43 235.05 399.39 235.05 399.39 240.1 399.39 295.11 412.43 295.11 412.43 255.64 433.91 281.24 455.39 255.64 455.39 295.11 468.43 295.11 468.43 240.1 468.43 235.05 455.39 235.05"/>
    <polygon points="483.64 235.05 483.64 247.94 507.29 247.94 507.29 295.11 521.13 295.11 521.13 247.94 544.78 247.94 544.78 235.05 483.64 235.05"/>
  </g>
  <g>
    <g>
      <path d="M340.17,337.47v-10.02h8.36c.31,0,.59.08.84.23.25.15.46.36.61.61.15.25.22.53.22.84v2.94c0,.31-.07.58-.22.84-.15.25-.35.45-.61.61-.26.15-.54.23-.84.23h-7.23v3.74h-1.13ZM341.84,332.59h6.69c.15,0,.28-.05.38-.15.11-.1.16-.23.16-.38v-2.94c0-.15-.05-.28-.16-.38-.11-.11-.24-.16-.38-.16h-6.69c-.15,0-.28.05-.38.16s-.16.24-.16.38v2.94c0,.15.05.27.16.38.11.1.23.15.38.15Z"/>
      <path d="M355.29,337.47v-10.02h8.36c.31,0,.59.08.84.23.26.15.46.36.61.61.15.25.22.53.22.84v2.94c0,.31-.07.58-.22.84s-.35.45-.61.61c-.25.15-.54.23-.84.23h-7.23v3.74h-1.13ZM356.96,332.59h6.69c.15,0,.28-.05.38-.15.11-.1.16-.23.16-.38v-2.94c0-.15-.05-.28-.16-.38s-.23-.16-.38-.16h-6.69c-.15,0-.28.05-.38.16-.11.11-.16.24-.16.38v2.94c0,.15.05.27.16.38.11.1.24.15.38.15ZM363.76,337.47l-3.28-3.9h1.48l3.29,3.89h0s-1.49.01-1.49.01Z"/>
      <path d="M370.91,337.47v-10.03h9.16v1.13h-8.03v3.32h6.45v1.14h-6.45v3.32h8.03v1.13h-9.16Z"/>
      <path d="M387.33,337.47c-.31,0-.59-.07-.84-.22-.26-.15-.46-.35-.61-.61-.15-.26-.22-.54-.22-.84v-6.69c0-.31.07-.59.22-.84.15-.25.35-.46.61-.61.25-.15.54-.22.84-.22h8.33v1.13h-8.33c-.15,0-.28.05-.38.16-.11.11-.16.23-.16.38v6.69c0,.15.05.28.16.38.11.11.24.16.38.16h8.33v1.13h-8.33Z"/>
      <path d="M401.35,337.47v-10.03h1.14v10.03h-1.14Z"/>
      <path d="M409.89,337.47c-.31,0-.59-.07-.84-.22-.26-.15-.46-.35-.61-.61s-.22-.54-.22-.84v-.39h1.13v.39c0,.15.05.28.16.38.11.11.23.16.38.16h6.69c.15,0,.28-.05.38-.16.11-.11.16-.23.16-.38v-2.24c0-.15-.05-.27-.16-.38-.11-.1-.24-.15-.38-.15h-6.69c-.31,0-.59-.08-.84-.23-.26-.15-.46-.36-.61-.61s-.22-.53-.22-.84v-2.24c0-.31.07-.59.22-.84.15-.25.35-.46.61-.61.25-.15.54-.22.84-.22h6.69c.31,0,.59.07.84.22.26.15.46.35.61.61.15.26.22.54.22.84v.39h-1.13v-.39c0-.15-.05-.28-.16-.38-.11-.11-.24-.16-.38-.16h-6.69c-.15,0-.28.05-.38.16s-.16.23-.16.38v2.24c0,.15.05.27.16.38.11.1.23.15.38.15h6.69c.31,0,.59.08.84.23.26.15.46.36.61.61s.22.53.22.84v2.24c0,.31-.08.59-.22.84s-.35.46-.61.61c-.25.15-.54.22-.84.22h-6.69Z"/>
      <path d="M423.98,337.47v-10.03h1.14v10.03h-1.14Z"/>
      <path d="M432.57,337.47c-.31,0-.59-.07-.84-.22s-.46-.35-.61-.61-.22-.54-.22-.84v-6.69c0-.31.07-.59.22-.84.15-.25.35-.46.61-.61.26-.15.54-.22.84-.22h6.69c.31,0,.59.07.84.22.25.15.46.35.61.61.15.26.22.54.22.84v6.69c0,.31-.07.59-.22.84-.15.26-.35.46-.61.61-.26.15-.54.22-.84.22h-6.69ZM432.57,336.34h6.69c.15,0,.28-.05.38-.16.11-.11.16-.23.16-.38v-6.69c0-.15-.05-.28-.16-.38-.11-.11-.24-.16-.38-.16h-6.69c-.15,0-.28.05-.38.16s-.16.23-.16.38v6.69c0,.15.05.28.16.38.11.11.23.16.38.16Z"/>
      <path d="M446.56,337.47v-10.03h1.55l7.36,8.75v-8.75h1.13v10.03h-1.55l-7.36-8.75v8.75h-1.13Z"/>
    </g>
    <g>
      <path d="M192.97,337.47c-.31,0-.59-.07-.84-.22s-.46-.35-.61-.61c-.15-.26-.22-.54-.22-.84v-6.69c0-.31.07-.59.22-.84.15-.25.35-.46.61-.61.26-.15.54-.22.84-.22h8.33v1.13h-8.33c-.15,0-.28.05-.38.16-.11.11-.16.23-.16.38v6.69c0,.15.05.28.16.38s.24.16.38.16h8.33v1.13h-8.33Z"/>
      <path d="M206.88,329.11c0-.31.07-.59.22-.84.15-.25.35-.46.61-.61.25-.15.54-.22.84-.22h6.69c.31,0,.59.07.84.22.25.15.46.35.61.61.15.26.22.54.22.84v8.36h-1.13v-3.67h-7.78v3.67h-1.13v-8.36ZM215.79,332.67v-3.57c0-.15-.05-.28-.16-.38s-.23-.16-.38-.16h-6.69c-.15,0-.28.05-.38.16s-.16.23-.16.38v3.57h7.78Z"/>
      <path d="M224.21,337.47c-.31,0-.59-.07-.84-.22-.26-.15-.46-.35-.61-.61s-.22-.54-.22-.84v-.39h1.13v.39c0,.15.05.28.16.38.11.11.23.16.38.16h6.69c.15,0,.28-.05.38-.16s.16-.23.16-.38v-2.24c0-.15-.05-.27-.16-.38-.11-.1-.24-.15-.38-.15h-6.69c-.31,0-.59-.08-.84-.23-.26-.15-.46-.36-.61-.61s-.22-.53-.22-.84v-2.24c0-.31.07-.59.22-.84.15-.25.35-.46.61-.61.25-.15.54-.22.84-.22h6.69c.31,0,.59.07.84.22.26.15.46.35.61.61.15.26.22.54.22.84v.39h-1.13v-.39c0-.15-.05-.28-.16-.38-.11-.11-.24-.16-.38-.16h-6.69c-.15,0-.28.05-.38.16s-.16.23-.16.38v2.24c0,.15.05.27.16.38.11.1.23.15.38.15h6.69c.31,0,.59.08.84.23s.46.36.61.61.22.53.22.84v2.24c0,.31-.08.59-.22.84s-.35.46-.61.61-.54.22-.84.22h-6.69Z"/>
      <path d="M239.76,337.47c-.31,0-.59-.07-.84-.22-.26-.15-.46-.35-.61-.61s-.22-.54-.22-.84v-.39h1.13v.39c0,.15.05.28.16.38.11.11.23.16.38.16h6.69c.15,0,.28-.05.38-.16s.16-.23.16-.38v-2.24c0-.15-.05-.27-.16-.38-.11-.1-.24-.15-.38-.15h-6.69c-.31,0-.59-.08-.84-.23-.26-.15-.46-.36-.61-.61s-.22-.53-.22-.84v-2.24c0-.31.07-.59.22-.84.15-.25.35-.46.61-.61.25-.15.54-.22.84-.22h6.69c.31,0,.59.07.84.22.26.15.46.35.61.61.15.26.22.54.22.84v.39h-1.13v-.39c0-.15-.05-.28-.16-.38-.11-.11-.24-.16-.38-.16h-6.69c-.15,0-.28.05-.38.16s-.16.23-.16.38v2.24c0,.15.05.27.16.38.11.1.23.15.38.15h6.69c.31,0,.59.08.84.23s.46.36.61.61.22.53.22.84v2.24c0,.31-.08.59-.22.84s-.35.46-.61.61-.54.22-.84.22h-6.69Z"/>
      <path d="M253.74,329.11c0-.31.07-.59.22-.84.15-.25.35-.46.61-.61.25-.15.54-.22.84-.22h6.69c.31,0,.59.07.84.22.26.15.46.35.61.61.15.26.22.54.22.84v8.36h-1.13v-3.67h-7.78v3.67h-1.13v-8.36ZM262.64,332.67v-3.57c0-.15-.05-.28-.16-.38-.11-.11-.23-.16-.38-.16h-6.69c-.15,0-.28.05-.38.16-.11.11-.16.23-.16.38v3.57h7.78Z"/>
      <path d="M274.98,337.47l-5.81-10.03h1.32l5.14,8.93,5.13-8.93h1.32l-5.8,10.03h-1.31Z"/>
      <path d="M287.04,329.11c0-.31.07-.59.22-.84.15-.25.35-.46.61-.61.26-.15.54-.22.84-.22h6.69c.31,0,.59.07.84.22.25.15.46.35.61.61.15.26.22.54.22.84v8.36h-1.13v-3.67h-7.78v3.67h-1.13v-8.36ZM295.95,332.67v-3.57c0-.15-.05-.28-.16-.38-.11-.11-.23-.16-.38-.16h-6.69c-.15,0-.28.05-.38.16-.11.11-.16.23-.16.38v3.57h7.78Z"/>
      <path d="M302.76,337.47v-10.03h1.55l7.36,8.75v-8.75h1.13v10.03h-1.55l-7.36-8.75v8.75h-1.13Z"/>
      <path d="M322.41,337.47v-8.91h-4.46v-1.13h10.03v1.13h-4.45v8.91h-1.13Z"/>
    </g>
    <g>
      <path d="M472.78,337.47v-10.03h1.55l4.17,4.96,4.17-4.96h1.55v10.03h-1.13v-8.75l-4.59,5.45-4.58-5.45v8.75h-1.13Z"/>
      <path d="M489.84,329.11c0-.31.07-.59.22-.84.15-.25.35-.46.61-.61.26-.15.54-.22.84-.22h6.69c.31,0,.59.07.84.22.26.15.46.35.61.61.15.26.22.54.22.84v8.36h-1.13v-3.67h-7.78v3.67h-1.13v-8.36ZM498.75,332.67v-3.57c0-.15-.05-.28-.16-.38-.11-.11-.23-.16-.38-.16h-6.69c-.15,0-.28.05-.38.16-.11.11-.16.23-.16.38v3.57h7.78Z"/>
      <path d="M507.23,337.47c-.31,0-.59-.07-.84-.22-.26-.15-.46-.35-.61-.61s-.22-.54-.22-.84v-6.69c0-.31.07-.59.22-.84.15-.25.35-.46.61-.61.25-.15.54-.22.84-.22h8.33v1.13h-8.33c-.15,0-.28.05-.38.16-.11.11-.16.23-.16.38v6.69c0,.15.05.28.16.38s.23.16.38.16h8.33v1.13h-8.33Z"/>
      <path d="M521.13,337.47v-10.03h1.13v4.45h8.01v-4.45h1.14v10.03h-1.14v-4.45h-8.01v4.45h-1.13Z"/>
      <path d="M537.21,337.47v-10.03h1.14v10.03h-1.14Z"/>
      <path d="M544.15,337.47v-10.03h1.55l7.36,8.75v-8.75h1.13v10.03h-1.55l-7.36-8.75v8.75h-1.13Z"/>
      <path d="M559.87,337.47v-10.03h9.16v1.13h-8.03v3.32h6.45v1.14h-6.45v3.32h8.03v1.13h-9.16Z"/>
    </g>
    <g>
      <path d="M586.04,337.47v-8.91h-4.46v-1.13h10.03v1.13h-4.45v8.91h-1.13Z"/>
      <path d="M598.41,337.47c-.31,0-.59-.07-.84-.22-.25-.15-.46-.35-.61-.61-.15-.26-.22-.54-.22-.84v-6.69c0-.31.07-.59.22-.84.15-.25.35-.46.61-.61.26-.15.54-.22.84-.22h6.69c.31,0,.59.07.84.22.26.15.46.35.61.61.15.26.22.54.22.84v6.69c0,.31-.07.59-.22.84s-.35.46-.61.61-.54.22-.84.22h-6.69ZM598.41,336.34h6.69c.15,0,.28-.05.38-.16.11-.11.16-.23.16-.38v-6.69c0-.15-.05-.28-.16-.38s-.23-.16-.38-.16h-6.69c-.15,0-.28.05-.38.16-.11.11-.16.23-.16.38v6.69c0,.15.05.28.16.38.11.11.24.16.38.16Z"/>
      <path d="M614.04,337.47c-.31,0-.59-.07-.84-.22s-.46-.35-.61-.61-.22-.54-.22-.84v-6.69c0-.31.07-.59.22-.84.15-.25.35-.46.61-.61.26-.15.54-.22.84-.22h6.69c.31,0,.59.07.84.22.25.15.46.35.61.61.15.26.22.54.22.84v6.69c0,.31-.07.59-.22.84-.15.26-.35.46-.61.61-.26.15-.54.22-.84.22h-6.69ZM614.04,336.34h6.69c.15,0,.28-.05.38-.16.11-.11.16-.23.16-.38v-6.69c0-.15-.05-.28-.16-.38-.11-.11-.24-.16-.38-.16h-6.69c-.15,0-.28.05-.38.16s-.16.23-.16.38v6.69c0,.15.05.28.16.38.11.11.23.16.38.16Z"/>
      <path d="M628.05,337.47v-10.05h1.13v8.92h8.91v1.13h-10.03Z"/>
      <path d="M644.59,337.47c-.31,0-.59-.07-.84-.22-.26-.15-.46-.35-.61-.61s-.22-.54-.22-.84v-.39h1.13v.39c0,.15.05.28.16.38.11.11.23.16.38.16h6.69c.15,0,.28-.05.38-.16.11-.11.16-.23.16-.38v-2.24c0-.15-.05-.27-.16-.38-.11-.1-.24-.15-.38-.15h-6.69c-.31,0-.59-.08-.84-.23-.26-.15-.46-.36-.61-.61s-.22-.53-.22-.84v-2.24c0-.31.07-.59.22-.84.15-.25.35-.46.61-.61.25-.15.54-.22.84-.22h6.69c.31,0,.59.07.84.22.26.15.46.35.61.61.15.26.22.54.22.84v.39h-1.13v-.39c0-.15-.05-.28-.16-.38-.11-.11-.24-.16-.38-.16h-6.69c-.15,0-.28.05-.38.16s-.16.23-.16.38v2.24c0,.15.05.27.16.38.11.1.23.15.38.15h6.69c.31,0,.59.08.84.23.26.15.46.36.61.61s.22.53.22.84v2.24c0,.31-.08.59-.22.84s-.35.46-.61.61c-.25.15-.54.22-.84.22h-6.69Z"/>
    </g>
    <rect class="st0" x="138.34" y="331.26" width="32.97" height="3"/>
  </g>
</svg>