<?xml version="1.0" encoding="UTF-8"?>
<svg id="Layer_1" xmlns="http://www.w3.org/2000/svg" version="1.1" viewBox="232 224 328 126">
  <!-- Generator: Adobe Illustrator 30.2.1, SVG Export Plug-In . SVG Version: 2.1.1 Build 1)  -->
  <defs>
    <style>
      .st0 {
        fill: #c12033;
      }
    </style>
  </defs>
  <path class="st0" d="M255.29,275.03v-30.79c0-1.31,1.06-2.37,2.37-2.37h45.11v-12.62h-47.99c-6.67,0-12.07,5.41-12.07,12.07v35.92c0,6.67,5.41,12.07,12.07,12.07h47.99v-11.91h-45.11c-1.31,0-2.37-1.06-2.37-2.37Z"/>
  <path d="M320.62,229.24v60.06h12.76v-19.69h35.66c6.43,0,11.64-5.21,11.64-11.64v-17.08c0-6.43-5.21-11.64-11.64-11.64h-48.42ZM367.92,256.57h-34.54v-14.43h34.54v14.43Z"/>
  <polygon points="450.88 229.24 450.22 229.24 429.4 254.06 408.57 229.24 407.92 229.24 394.88 229.24 394.88 234.3 394.88 289.31 407.92 289.31 407.92 249.84 429.4 275.44 450.88 249.84 450.88 289.31 463.92 289.31 463.92 234.3 463.92 229.24 450.88 229.24"/>
  <polygon points="479.12 229.24 479.12 242.14 502.78 242.14 502.78 289.31 516.62 289.31 516.62 242.14 540.27 242.14 540.27 229.24 479.12 229.24"/>
  <g>
    <path d="M436.95,323.87v-10.02h8.36c.31,0,.59.08.84.23.26.15.46.36.61.61.15.25.22.53.22.84v2.94c0,.31-.07.58-.22.84-.15.25-.35.45-.61.61-.25.15-.54.23-.84.23h-7.23v3.74h-1.13ZM438.62,319h6.69c.15,0,.28-.05.38-.15.11-.1.16-.23.16-.38v-2.94c0-.15-.05-.28-.16-.38-.11-.11-.24-.16-.38-.16h-6.69c-.15,0-.28.05-.38.16-.11.11-.16.24-.16.38v2.94c0,.15.05.27.16.38.11.1.24.15.38.15Z"/>
    <path d="M452.07,323.87v-10.02h8.36c.31,0,.59.08.84.23s.46.36.61.61c.15.25.22.53.22.84v2.94c0,.31-.07.58-.22.84-.15.25-.35.45-.61.61s-.54.23-.84.23h-7.23v3.74h-1.13ZM453.74,319h6.69c.15,0,.28-.05.38-.15.11-.1.16-.23.16-.38v-2.94c0-.15-.05-.28-.16-.38-.11-.11-.24-.16-.38-.16h-6.69c-.15,0-.28.05-.38.16-.11.11-.16.24-.16.38v2.94c0,.15.05.27.16.38.11.1.23.15.38.15ZM460.55,323.87l-3.28-3.9h1.48l3.29,3.89h0s-1.49.01-1.49.01Z"/>
    <path d="M467.7,323.87v-10.03h9.16v1.13h-8.03v3.32h6.45v1.14h-6.45v3.32h8.03v1.13h-9.16Z"/>
    <path d="M484.11,323.87c-.31,0-.59-.07-.84-.22-.26-.15-.46-.35-.61-.61s-.22-.54-.22-.84v-6.69c0-.31.07-.59.22-.84.15-.25.35-.46.61-.61.25-.15.54-.22.84-.22h8.33v1.13h-8.33c-.15,0-.28.05-.38.16-.11.11-.16.23-.16.38v6.69c0,.15.05.28.16.38s.23.16.38.16h8.33v1.13h-8.33Z"/>
    <path d="M498.13,323.87v-10.03h1.14v10.03h-1.14Z"/>
    <path d="M506.67,323.87c-.31,0-.59-.07-.84-.22-.26-.15-.46-.35-.61-.61s-.22-.54-.22-.84v-.39h1.13v.39c0,.15.05.28.16.38.11.11.23.16.38.16h6.69c.15,0,.28-.05.38-.16.11-.11.16-.23.16-.38v-2.24c0-.15-.05-.27-.16-.38-.11-.1-.24-.15-.38-.15h-6.69c-.31,0-.59-.08-.84-.23-.26-.15-.46-.36-.61-.61s-.22-.53-.22-.84v-2.24c0-.31.07-.59.22-.84.15-.25.35-.46.61-.61.25-.15.54-.22.84-.22h6.69c.31,0,.59.07.84.22.26.15.46.35.61.61.15.26.22.54.22.84v.39h-1.13v-.39c0-.15-.05-.28-.16-.38-.11-.11-.24-.16-.38-.16h-6.69c-.15,0-.28.05-.38.16-.11.11-.16.23-.16.38v2.24c0,.15.05.27.16.38.11.1.23.15.38.15h6.69c.31,0,.59.08.84.23s.46.36.61.61c.15.25.22.53.22.84v2.24c0,.31-.08.59-.22.84-.15.26-.35.46-.61.61s-.54.22-.84.22h-6.69Z"/>
    <path d="M520.76,323.87v-10.03h1.14v10.03h-1.14Z"/>
    <path d="M529.35,323.87c-.31,0-.59-.07-.84-.22s-.46-.35-.61-.61c-.15-.26-.22-.54-.22-.84v-6.69c0-.31.07-.59.22-.84.15-.25.35-.46.61-.61.26-.15.54-.22.84-.22h6.69c.31,0,.59.07.84.22.26.15.46.35.61.61.15.26.22.54.22.84v6.69c0,.31-.07.59-.22.84-.15.26-.35.46-.61.61s-.54.22-.84.22h-6.69ZM529.35,322.75h6.69c.15,0,.28-.05.38-.16.11-.11.16-.23.16-.38v-6.69c0-.15-.05-.28-.16-.38-.11-.11-.24-.16-.38-.16h-6.69c-.15,0-.28.05-.38.16-.11.11-.16.23-.16.38v6.69c0,.15.05.28.16.38.11.11.24.16.38.16Z"/>
    <path d="M543.34,323.87v-10.03h1.55l7.36,8.75v-8.75h1.13v10.03h-1.55l-7.36-8.75v8.75h-1.13Z"/>
  </g>
  <g>
    <path d="M289.75,323.87c-.31,0-.59-.07-.84-.22s-.46-.35-.61-.61-.22-.54-.22-.84v-6.69c0-.31.07-.59.22-.84.15-.25.35-.46.61-.61.26-.15.54-.22.84-.22h8.33v1.13h-8.33c-.15,0-.28.05-.38.16s-.16.23-.16.38v6.69c0,.15.05.28.16.38.11.11.23.16.38.16h8.33v1.13h-8.33Z"/>
    <path d="M303.66,315.51c0-.31.07-.59.22-.84.15-.25.35-.46.61-.61.25-.15.54-.22.84-.22h6.69c.31,0,.59.07.84.22.26.15.46.35.61.61.15.26.22.54.22.84v8.36h-1.13v-3.67h-7.78v3.67h-1.13v-8.36ZM312.57,319.08v-3.57c0-.15-.05-.28-.16-.38s-.23-.16-.38-.16h-6.69c-.15,0-.28.05-.38.16s-.16.23-.16.38v3.57h7.78Z"/>
    <path d="M320.99,323.87c-.31,0-.59-.07-.84-.22-.26-.15-.46-.35-.61-.61s-.22-.54-.22-.84v-.39h1.13v.39c0,.15.05.28.16.38.11.11.23.16.38.16h6.69c.15,0,.28-.05.38-.16.11-.11.16-.23.16-.38v-2.24c0-.15-.05-.27-.16-.38-.11-.1-.24-.15-.38-.15h-6.69c-.31,0-.59-.08-.84-.23-.26-.15-.46-.36-.61-.61s-.22-.53-.22-.84v-2.24c0-.31.07-.59.22-.84.15-.25.35-.46.61-.61.25-.15.54-.22.84-.22h6.69c.31,0,.59.07.84.22.26.15.46.35.61.61.15.26.22.54.22.84v.39h-1.13v-.39c0-.15-.05-.28-.16-.38-.11-.11-.24-.16-.38-.16h-6.69c-.15,0-.28.05-.38.16s-.16.23-.16.38v2.24c0,.15.05.27.16.38.11.1.23.15.38.15h6.69c.31,0,.59.08.84.23.26.15.46.36.61.61s.22.53.22.84v2.24c0,.31-.08.59-.22.84s-.35.46-.61.61c-.25.15-.54.22-.84.22h-6.69Z"/>
    <path d="M336.54,323.87c-.31,0-.59-.07-.84-.22-.26-.15-.46-.35-.61-.61s-.22-.54-.22-.84v-.39h1.13v.39c0,.15.05.28.16.38.11.11.23.16.38.16h6.69c.15,0,.28-.05.38-.16.11-.11.16-.23.16-.38v-2.24c0-.15-.05-.27-.16-.38-.11-.1-.24-.15-.38-.15h-6.69c-.31,0-.59-.08-.84-.23-.26-.15-.46-.36-.61-.61s-.22-.53-.22-.84v-2.24c0-.31.07-.59.22-.84.15-.25.35-.46.61-.61.25-.15.54-.22.84-.22h6.69c.31,0,.59.07.84.22.26.15.46.35.61.61.15.26.22.54.22.84v.39h-1.13v-.39c0-.15-.05-.28-.16-.38-.11-.11-.24-.16-.38-.16h-6.69c-.15,0-.28.05-.38.16s-.16.23-.16.38v2.24c0,.15.05.27.16.38.11.1.23.15.38.15h6.69c.31,0,.59.08.84.23.26.15.46.36.61.61s.22.53.22.84v2.24c0,.31-.08.59-.22.84s-.35.46-.61.61c-.25.15-.54.22-.84.22h-6.69Z"/>
    <path d="M350.52,315.51c0-.31.07-.59.22-.84.15-.25.35-.46.61-.61.26-.15.54-.22.84-.22h6.69c.31,0,.59.07.84.22.25.15.46.35.61.61.15.26.22.54.22.84v8.36h-1.13v-3.67h-7.78v3.67h-1.13v-8.36ZM359.42,319.08v-3.57c0-.15-.05-.28-.16-.38-.11-.11-.23-.16-.38-.16h-6.69c-.15,0-.28.05-.38.16-.11.11-.16.23-.16.38v3.57h7.78Z"/>
    <path d="M371.76,323.87l-5.81-10.03h1.32l5.14,8.93,5.13-8.93h1.32l-5.8,10.03h-1.31Z"/>
    <path d="M383.83,315.51c0-.31.07-.59.22-.84.15-.25.35-.46.61-.61.26-.15.54-.22.84-.22h6.69c.31,0,.59.07.84.22.25.15.46.35.61.61.15.26.22.54.22.84v8.36h-1.13v-3.67h-7.78v3.67h-1.13v-8.36ZM392.73,319.08v-3.57c0-.15-.05-.28-.16-.38-.11-.11-.23-.16-.38-.16h-6.69c-.15,0-.28.05-.38.16-.11.11-.16.23-.16.38v3.57h7.78Z"/>
    <path d="M399.54,323.87v-10.03h1.55l7.36,8.75v-8.75h1.13v10.03h-1.55l-7.36-8.75v8.75h-1.13Z"/>
    <path d="M419.2,323.87v-8.91h-4.46v-1.13h10.03v1.13h-4.45v8.91h-1.13Z"/>
  </g>
  <g>
    <path d="M287.3,343.27v-10.03h1.55l4.17,4.96,4.17-4.96h1.55v10.03h-1.13v-8.75l-4.59,5.45-4.58-5.45v8.75h-1.13Z"/>
    <path d="M304.36,334.91c0-.31.07-.59.22-.84.15-.25.35-.46.61-.61.26-.15.54-.22.84-.22h6.69c.31,0,.59.07.84.22.25.15.46.35.61.61.15.26.22.54.22.84v8.36h-1.13v-3.67h-7.78v3.67h-1.13v-8.36ZM313.27,338.48v-3.57c0-.15-.05-.28-.16-.38-.11-.11-.23-.16-.38-.16h-6.69c-.15,0-.28.05-.38.16-.11.11-.16.23-.16.38v3.57h7.78Z"/>
    <path d="M321.75,343.27c-.31,0-.59-.07-.84-.22s-.46-.35-.61-.61c-.15-.26-.22-.54-.22-.84v-6.69c0-.31.07-.59.22-.84.15-.25.35-.46.61-.61.26-.15.54-.22.84-.22h8.33v1.13h-8.33c-.15,0-.28.05-.38.16-.11.11-.16.23-.16.38v6.69c0,.15.05.28.16.38.11.11.24.16.38.16h8.33v1.13h-8.33Z"/>
    <path d="M335.65,343.27v-10.03h1.13v4.45h8.01v-4.45h1.14v10.03h-1.14v-4.45h-8.01v4.45h-1.13Z"/>
    <path d="M351.73,343.27v-10.03h1.14v10.03h-1.14Z"/>
    <path d="M358.67,343.27v-10.03h1.55l7.36,8.75v-8.75h1.13v10.03h-1.55l-7.36-8.75v8.75h-1.13Z"/>
    <path d="M374.39,343.27v-10.03h9.16v1.13h-8.03v3.32h6.45v1.14h-6.45v3.32h8.03v1.13h-9.16Z"/>
  </g>
  <g>
    <path d="M400.56,343.27v-8.91h-4.46v-1.13h10.03v1.13h-4.45v8.91h-1.13Z"/>
    <path d="M412.93,343.27c-.31,0-.59-.07-.84-.22s-.46-.35-.61-.61-.22-.54-.22-.84v-6.69c0-.31.07-.59.22-.84.15-.25.35-.46.61-.61.26-.15.54-.22.84-.22h6.69c.31,0,.59.07.84.22.25.15.46.35.61.61.15.26.22.54.22.84v6.69c0,.31-.07.59-.22.84-.15.26-.35.46-.61.61-.26.15-.54.22-.84.22h-6.69ZM412.93,342.14h6.69c.15,0,.28-.05.38-.16.11-.11.16-.23.16-.38v-6.69c0-.15-.05-.28-.16-.38-.11-.11-.24-.16-.38-.16h-6.69c-.15,0-.28.05-.38.16s-.16.23-.16.38v6.69c0,.15.05.28.16.38.11.11.23.16.38.16Z"/>
    <path d="M428.56,343.27c-.31,0-.59-.07-.84-.22-.25-.15-.46-.35-.61-.61-.15-.26-.22-.54-.22-.84v-6.69c0-.31.07-.59.22-.84.15-.25.35-.46.61-.61.26-.15.54-.22.84-.22h6.69c.31,0,.59.07.84.22.26.15.46.35.61.61.15.26.22.54.22.84v6.69c0,.31-.07.59-.22.84s-.35.46-.61.61-.54.22-.84.22h-6.69ZM428.56,342.14h6.69c.15,0,.28-.05.38-.16.11-.11.16-.23.16-.38v-6.69c0-.15-.05-.28-.16-.38s-.23-.16-.38-.16h-6.69c-.15,0-.28.05-.38.16-.11.11-.16.23-.16.38v6.69c0,.15.05.28.16.38.11.11.24.16.38.16Z"/>
    <path d="M442.57,343.27v-10.05h1.13v8.92h8.91v1.13h-10.03Z"/>
    <path d="M459.11,343.27c-.31,0-.59-.07-.84-.22s-.46-.35-.61-.61-.22-.54-.22-.84v-.39h1.13v.39c0,.15.05.28.16.38s.23.16.38.16h6.69c.15,0,.28-.05.38-.16s.16-.23.16-.38v-2.24c0-.15-.05-.27-.16-.38-.11-.1-.23-.15-.38-.15h-6.69c-.31,0-.59-.08-.84-.23s-.46-.36-.61-.61-.22-.53-.22-.84v-2.24c0-.31.07-.59.22-.84.15-.25.35-.46.61-.61.26-.15.54-.22.84-.22h6.69c.31,0,.59.07.84.22.26.15.46.35.61.61.15.26.22.54.22.84v.39h-1.13v-.39c0-.15-.05-.28-.16-.38-.11-.11-.23-.16-.38-.16h-6.69c-.15,0-.28.05-.38.16-.11.11-.16.23-.16.38v2.24c0,.15.05.27.16.38.11.1.23.15.38.15h6.69c.31,0,.59.08.84.23s.46.36.61.61c.15.25.22.53.22.84v2.24c0,.31-.07.59-.22.84-.15.26-.35.46-.61.61s-.54.22-.84.22h-6.69Z"/>
  </g>
  <rect class="st0" x="237.84" y="327.06" width="32.97" height="3"/>
</svg>