<?xml version="1.0" encoding="UTF-8"?>
<svg id="Layer_1" xmlns="http://www.w3.org/2000/svg" version="1.1" viewBox="243 232 306 108">
  <!-- Generator: Adobe Illustrator 30.2.1, SVG Export Plug-In . SVG Version: 2.1.1 Build 1)  -->
  <defs>
    <style>
      .st0 {
        fill: #c12033;
      }
    </style>
  </defs>
  <g>
    <path class="st0" d="M259.81,282.02v-30.79c0-1.31,1.06-2.37,2.37-2.37h45.11v-12.62h-47.99c-6.67,0-12.07,5.41-12.07,12.07v35.92c0,6.67,5.41,12.07,12.07,12.07h47.99v-11.91h-45.11c-1.31,0-2.37-1.06-2.37-2.37Z"/>
    <path d="M325.13,236.23v60.06h12.76v-19.69h35.66c6.43,0,11.64-5.21,11.64-11.64v-17.08c0-6.43-5.21-11.64-11.64-11.64h-48.42ZM372.43,263.56h-34.54v-14.43h34.54v14.43Z"/>
    <polygon points="455.39 236.23 454.74 236.23 433.91 261.05 413.09 236.23 412.43 236.23 399.39 236.23 399.39 241.29 399.39 296.3 412.43 296.3 412.43 256.83 433.91 282.43 455.39 256.83 455.39 296.3 468.43 296.3 468.43 241.29 468.43 236.23 455.39 236.23"/>
    <polygon points="483.64 236.23 483.64 249.13 507.29 249.13 507.29 296.3 521.13 296.3 521.13 249.13 544.78 249.13 544.78 236.23 483.64 236.23"/>
  </g>
  <g>
    <path d="M249.63,317.25c-.34,0-.66-.08-.94-.25-.28-.17-.51-.39-.67-.68-.17-.28-.25-.6-.25-.94v-7.45c0-.34.08-.65.25-.94.17-.28.39-.51.67-.68.28-.17.6-.25.94-.25h9.28v1.26h-9.28c-.17,0-.31.06-.43.18-.12.12-.18.26-.18.43v7.45c0,.17.06.31.18.43s.26.18.43.18h9.28v1.26h-9.28Z"/>
    <path d="M265.12,307.94c0-.34.08-.65.25-.94.17-.28.39-.51.68-.68.28-.17.6-.25.94-.25h7.45c.34,0,.66.08.94.25.29.17.51.39.68.68.17.29.25.6.25.94v9.31h-1.26v-4.08h-8.66v4.08h-1.26v-9.31ZM275.04,311.91v-3.97c0-.17-.06-.31-.18-.43s-.26-.18-.43-.18h-7.45c-.17,0-.31.06-.43.18-.12.12-.18.26-.18.43v3.97h8.66Z"/>
    <path d="M284.42,317.25c-.34,0-.65-.08-.94-.25-.29-.17-.51-.39-.68-.68-.17-.28-.25-.6-.25-.94v-.43h1.26v.43c0,.17.06.31.18.43.12.12.26.18.43.18h7.45c.17,0,.31-.06.43-.18.12-.12.18-.26.18-.43v-2.5c0-.17-.06-.31-.18-.42-.12-.11-.26-.17-.43-.17h-7.45c-.34,0-.65-.09-.94-.26-.29-.17-.51-.4-.68-.67s-.25-.59-.25-.93v-2.5c0-.34.08-.65.25-.94.17-.28.39-.51.68-.68.28-.17.6-.25.94-.25h7.45c.34,0,.65.08.94.25.28.17.51.39.67.68.17.29.25.6.25.94v.43h-1.26v-.43c0-.17-.06-.31-.18-.43-.12-.12-.26-.18-.43-.18h-7.45c-.17,0-.31.06-.43.18-.12.12-.18.26-.18.43v2.5c0,.17.06.31.18.42.12.11.26.17.43.17h7.45c.34,0,.65.09.94.26.28.17.51.4.67.67.17.28.25.59.25.93v2.5c0,.34-.08.66-.25.94-.17.29-.39.51-.67.68-.29.17-.6.25-.94.25h-7.45Z"/>
    <path d="M301.74,317.25c-.34,0-.65-.08-.94-.25-.29-.17-.51-.39-.68-.68-.17-.28-.25-.6-.25-.94v-.43h1.26v.43c0,.17.06.31.18.43.12.12.26.18.43.18h7.45c.17,0,.31-.06.43-.18.12-.12.18-.26.18-.43v-2.5c0-.17-.06-.31-.18-.42-.12-.11-.26-.17-.43-.17h-7.45c-.34,0-.65-.09-.94-.26-.29-.17-.51-.4-.68-.67s-.25-.59-.25-.93v-2.5c0-.34.08-.65.25-.94.17-.28.39-.51.68-.68.28-.17.6-.25.94-.25h7.45c.34,0,.65.08.94.25.28.17.51.39.67.68.17.29.25.6.25.94v.43h-1.26v-.43c0-.17-.06-.31-.18-.43-.12-.12-.26-.18-.43-.18h-7.45c-.17,0-.31.06-.43.18-.12.12-.18.26-.18.43v2.5c0,.17.06.31.18.42.12.11.26.17.43.17h7.45c.34,0,.65.09.94.26.28.17.51.4.67.67.17.28.25.59.25.93v2.5c0,.34-.08.66-.25.94-.17.29-.39.51-.67.68-.29.17-.6.25-.94.25h-7.45Z"/>
    <path d="M317.31,307.94c0-.34.08-.65.25-.94.17-.28.39-.51.68-.68.28-.17.6-.25.94-.25h7.45c.34,0,.66.08.94.25.29.17.51.39.68.68.17.29.25.6.25.94v9.31h-1.26v-4.08h-8.66v4.08h-1.26v-9.31ZM327.23,311.91v-3.97c0-.17-.06-.31-.18-.43s-.26-.18-.43-.18h-7.45c-.17,0-.31.06-.43.18-.12.12-.18.26-.18.43v3.97h8.66Z"/>
    <path d="M340.97,317.25l-6.47-11.18h1.48l5.73,9.95,5.71-9.95h1.47l-6.46,11.18h-1.46Z"/>
    <path d="M354.42,307.94c0-.34.08-.65.25-.94.17-.28.39-.51.68-.68.28-.17.6-.25.94-.25h7.45c.34,0,.66.08.94.25.29.17.51.39.68.68.17.29.25.6.25.94v9.31h-1.26v-4.08h-8.66v4.08h-1.26v-9.31ZM364.34,311.91v-3.97c0-.17-.06-.31-.18-.43s-.26-.18-.43-.18h-7.45c-.17,0-.31.06-.43.18-.12.12-.18.26-.18.43v3.97h8.66Z"/>
    <path d="M371.93,317.25v-11.18h1.72l8.2,9.75v-9.75h1.26v11.18h-1.72l-8.2-9.75v9.75h-1.26Z"/>
    <path d="M393.82,317.25v-9.92h-4.97v-1.26h11.18v1.26h-4.95v9.92h-1.26Z"/>
    <path d="M414.54,317.25v-11.16h9.32c.34,0,.65.08.94.26.29.17.51.4.68.68.17.28.25.59.25.93v3.28c0,.34-.08.65-.25.93-.17.28-.39.5-.68.67-.28.17-.6.26-.94.26h-8.06v4.16h-1.26ZM416.41,311.82h7.45c.17,0,.31-.06.43-.17.12-.11.18-.25.18-.42v-3.28c0-.17-.06-.31-.18-.43-.12-.12-.26-.18-.43-.18h-7.45c-.17,0-.31.06-.43.18s-.18.26-.18.43v3.28c0,.17.06.31.18.42.12.11.26.17.43.17Z"/>
    <path d="M431.39,317.25v-11.16h9.32c.34,0,.65.08.94.26.29.17.51.4.68.68.17.28.25.59.25.93v3.28c0,.34-.08.65-.25.93-.17.28-.39.5-.68.67-.28.17-.6.26-.94.26h-8.06v4.16h-1.26ZM433.25,311.82h7.45c.17,0,.31-.06.43-.17.12-.11.18-.25.18-.42v-3.28c0-.17-.06-.31-.18-.43-.12-.12-.26-.18-.43-.18h-7.45c-.17,0-.31.06-.43.18s-.18.26-.18.43v3.28c0,.17.06.31.18.42.12.11.26.17.43.17ZM440.83,317.25l-3.65-4.35h1.65l3.66,4.33v.02h-1.66Z"/>
    <path d="M448.79,317.25v-11.18h10.2v1.26h-8.94v3.69h7.19v1.27h-7.19v3.69h8.94v1.26h-10.2Z"/>
    <path d="M467.08,317.25c-.34,0-.66-.08-.94-.25-.28-.17-.51-.39-.67-.68-.17-.28-.25-.6-.25-.94v-7.45c0-.34.08-.65.25-.94.17-.28.39-.51.67-.68.28-.17.6-.25.94-.25h9.28v1.26h-9.28c-.17,0-.31.06-.43.18-.12.12-.18.26-.18.43v7.45c0,.17.06.31.18.43s.26.18.43.18h9.28v1.26h-9.28Z"/>
    <path d="M482.7,317.25v-11.18h1.27v11.18h-1.27Z"/>
    <path d="M492.21,317.25c-.34,0-.65-.08-.94-.25-.29-.17-.51-.39-.68-.68-.17-.28-.25-.6-.25-.94v-.43h1.26v.43c0,.17.06.31.18.43.12.12.26.18.43.18h7.45c.17,0,.31-.06.43-.18.12-.12.18-.26.18-.43v-2.5c0-.17-.06-.31-.18-.42-.12-.11-.26-.17-.43-.17h-7.45c-.34,0-.65-.09-.94-.26-.29-.17-.51-.4-.68-.67s-.25-.59-.25-.93v-2.5c0-.34.08-.65.25-.94.17-.28.39-.51.68-.68.28-.17.6-.25.94-.25h7.45c.34,0,.65.08.94.25.28.17.51.39.67.68.17.29.25.6.25.94v.43h-1.26v-.43c0-.17-.06-.31-.18-.43-.12-.12-.26-.18-.43-.18h-7.45c-.17,0-.31.06-.43.18-.12.12-.18.26-.18.43v2.5c0,.17.06.31.18.42.12.11.26.17.43.17h7.45c.34,0,.65.09.94.26.28.17.51.4.67.67.17.28.25.59.25.93v2.5c0,.34-.08.66-.25.94-.17.29-.39.51-.67.68-.29.17-.6.25-.94.25h-7.45Z"/>
    <path d="M507.91,317.25v-11.18h1.27v11.18h-1.27Z"/>
    <path d="M517.47,317.25c-.34,0-.65-.08-.94-.25-.28-.17-.51-.39-.67-.68-.17-.28-.25-.6-.25-.94v-7.45c0-.34.08-.65.25-.94.17-.28.39-.51.67-.68.29-.17.6-.25.94-.25h7.45c.34,0,.65.08.94.25.28.17.51.39.67.68.17.29.25.6.25.94v7.45c0,.34-.08.66-.25.94-.17.29-.39.51-.67.68-.29.17-.6.25-.94.25h-7.45ZM517.47,316h7.45c.17,0,.31-.06.43-.18.12-.12.18-.26.18-.43v-7.45c0-.17-.06-.31-.18-.43-.12-.12-.26-.18-.43-.18h-7.45c-.17,0-.31.06-.43.18-.12.12-.18.26-.18.43v7.45c0,.17.06.31.18.43.12.12.26.18.43.18Z"/>
    <path d="M533.06,317.25v-11.18h1.72l8.2,9.75v-9.75h1.26v11.18h-1.72l-8.2-9.75v9.75h-1.26Z"/>
    <path d="M295.46,335.88v-11.18h1.72l4.64,5.53,4.64-5.53h1.72v11.18h-1.26v-9.75l-5.11,6.07-5.11-6.07v9.75h-1.26Z"/>
    <path d="M314.46,326.57c0-.34.08-.65.25-.94.17-.28.39-.51.68-.68.28-.17.6-.25.94-.25h7.45c.34,0,.66.08.94.25.29.17.51.39.68.68.17.29.25.6.25.94v9.31h-1.26v-4.08h-8.66v4.08h-1.26v-9.31ZM324.38,330.54v-3.97c0-.17-.06-.31-.18-.43s-.26-.18-.43-.18h-7.45c-.17,0-.31.06-.43.18-.12.12-.18.26-.18.43v3.97h8.66Z"/>
    <path d="M333.83,335.88c-.34,0-.66-.08-.94-.25-.28-.17-.51-.39-.67-.68-.17-.28-.25-.6-.25-.94v-7.45c0-.34.08-.65.25-.94.17-.28.39-.51.67-.68.28-.17.6-.25.94-.25h9.28v1.26h-9.28c-.17,0-.31.06-.43.18-.12.12-.18.26-.18.43v7.45c0,.17.06.31.18.43s.26.18.43.18h9.28v1.26h-9.28Z"/>
    <path d="M349.31,335.88v-11.18h1.26v4.95h8.93v-4.95h1.27v11.18h-1.27v-4.95h-8.93v4.95h-1.26Z"/>
    <path d="M367.23,335.88v-11.18h1.27v11.18h-1.27Z"/>
    <path d="M374.96,335.88v-11.18h1.72l8.2,9.75v-9.75h1.26v11.18h-1.72l-8.2-9.75v9.75h-1.26Z"/>
    <path d="M392.47,335.88v-11.18h10.2v1.26h-8.94v3.69h7.19v1.27h-7.19v3.69h8.94v1.26h-10.2Z"/>
    <path d="M422.09,335.88v-9.92h-4.97v-1.26h11.18v1.26h-4.95v9.92h-1.26Z"/>
    <path d="M435.86,335.88c-.34,0-.65-.08-.94-.25-.28-.17-.51-.39-.67-.68-.17-.28-.25-.6-.25-.94v-7.45c0-.34.08-.65.25-.94.17-.28.39-.51.67-.68.29-.17.6-.25.94-.25h7.45c.34,0,.65.08.94.25.28.17.51.39.67.68.17.29.25.6.25.94v7.45c0,.34-.08.66-.25.94-.17.29-.39.51-.67.68-.29.17-.6.25-.94.25h-7.45ZM435.86,334.63h7.45c.17,0,.31-.06.43-.18.12-.12.18-.26.18-.43v-7.45c0-.17-.06-.31-.18-.43-.12-.12-.26-.18-.43-.18h-7.45c-.17,0-.31.06-.43.18-.12.12-.18.26-.18.43v7.45c0,.17.06.31.18.43.12.12.26.18.43.18Z"/>
    <path d="M453.28,335.88c-.34,0-.65-.08-.94-.25-.28-.17-.51-.39-.67-.68-.17-.28-.25-.6-.25-.94v-7.45c0-.34.08-.65.25-.94.17-.28.39-.51.67-.68.29-.17.6-.25.94-.25h7.45c.34,0,.65.08.94.25.28.17.51.39.67.68.17.29.25.6.25.94v7.45c0,.34-.08.66-.25.94-.17.29-.39.51-.67.68-.29.17-.6.25-.94.25h-7.45ZM453.28,334.63h7.45c.17,0,.31-.06.43-.18.12-.12.18-.26.18-.43v-7.45c0-.17-.06-.31-.18-.43-.12-.12-.26-.18-.43-.18h-7.45c-.17,0-.31.06-.43.18-.12.12-.18.26-.18.43v7.45c0,.17.06.31.18.43.12.12.26.18.43.18Z"/>
    <path d="M468.88,335.88v-11.19h1.26v9.94h9.92v1.26h-11.18Z"/>
    <path d="M487.31,335.88c-.34,0-.65-.08-.94-.25-.29-.17-.51-.39-.68-.68-.17-.28-.25-.6-.25-.94v-.43h1.26v.43c0,.17.06.31.18.43.12.12.26.18.43.18h7.45c.17,0,.31-.06.43-.18.12-.12.18-.26.18-.43v-2.5c0-.17-.06-.31-.18-.42-.12-.11-.26-.17-.43-.17h-7.45c-.34,0-.65-.09-.94-.26-.29-.17-.51-.4-.68-.67s-.25-.59-.25-.93v-2.5c0-.34.08-.65.25-.94.17-.28.39-.51.68-.68.28-.17.6-.25.94-.25h7.45c.34,0,.65.08.94.25.28.17.51.39.67.68.17.29.25.6.25.94v.43h-1.26v-.43c0-.17-.06-.31-.18-.43-.12-.12-.26-.18-.43-.18h-7.45c-.17,0-.31.06-.43.18-.12.12-.18.26-.18.43v2.5c0,.17.06.31.18.42.12.11.26.17.43.17h7.45c.34,0,.65.09.94.26.28.17.51.4.67.67.17.28.25.59.25.93v2.5c0,.34-.08.66-.25.94-.17.29-.39.51-.67.68-.29.17-.6.25-.94.25h-7.45Z"/>
  </g>
</svg>