<?xml version="1.0" encoding="UTF-8"?>
<svg id="Layer_1" xmlns="http://www.w3.org/2000/svg" version="1.1" viewBox="242 252 308 72">
  <!-- Generator: Adobe Illustrator 30.2.1, SVG Export Plug-In . SVG Version: 2.1.1 Build 1)  -->
  <defs>
    <style>
      .st0 {
        fill: #c12033;
      }
    </style>
  </defs>
  <path class="st0" d="M259.81,303.75v-30.79c0-1.31,1.06-2.37,2.37-2.37h45.11v-12.62h-47.99c-6.67,0-12.07,5.41-12.07,12.07v35.92c0,6.67,5.41,12.07,12.07,12.07h47.99v-11.91h-45.11c-1.31,0-2.37-1.06-2.37-2.37Z"/>
  <path d="M325.13,257.97v60.06h12.76v-19.69h35.66c6.43,0,11.64-5.21,11.64-11.64v-17.08c0-6.43-5.21-11.64-11.64-11.64h-48.42ZM372.43,285.29h-34.54v-14.43h34.54v14.43Z"/>
  <polygon points="455.39 257.97 454.74 257.97 433.91 282.79 413.09 257.97 412.43 257.97 399.39 257.97 399.39 263.02 399.39 318.03 412.43 318.03 412.43 278.56 433.91 304.16 455.39 278.56 455.39 318.03 468.43 318.03 468.43 263.02 468.43 257.97 455.39 257.97"/>
  <polygon points="483.64 257.97 483.64 270.86 507.29 270.86 507.29 318.03 521.13 318.03 521.13 270.86 544.78 270.86 544.78 257.97 483.64 257.97"/>
</svg>